<svg xmlns="http://www.w3.org/2000/svg" viewBox="0 0 751.71 277.26"><title>Hidden_Logo</title><g id="Layer_2" data-name="Layer 2"><g id="Layer_1-2" data-name="Layer 1"><path d="M30.72,241c0,19.15,6.31,25.83,16.25,36.13H0c9.94-10.3,16.25-17,16.25-36.13V186.79C16.25,167.64,9.94,161,0,150.66H47c-9.94,10.3-16.25,17-16.25,36.13Zm67.73-27.09c-8,.54-20.78,5.78-27.1,13.54-6.32-7.76-19.15-13-27.1-13.54,8-.55,21-5.78,27.1-13.55C77.49,208.11,90.5,213.34,98.45,213.89Zm28,27.09c0,19.15,6.32,25.83,16.25,36.13h-47c9.93-10.3,16.24-17,16.24-36.13V186.79c0-19.15-6.31-25.83-16.24-36.13h47c-9.93,10.3-16.25,17-16.25,36.13Z"/><path d="M248.73,241V186.79c0-19.15-6.31-25.83-16.25-36.13h47c-9.94,10.3-16.25,17-16.25,36.13V241c0,19.15,6.31,25.83,16.25,36.13h-47C242.42,266.81,248.73,260.13,248.73,241Zm48.78,36.13c20.59-11.38,41.71-32.88,41.71-63.22S318.1,162,297.51,150.66c32.7,0,61.6,19.87,61.6,63.23S330.21,277.11,297.51,277.11Z"/><path d="M381.13,241V186.79c0-19.15-6.32-25.83-16.25-36.13h47c-9.93,10.3-16.24,17-16.24,36.13V241c0,19.15,6.31,25.83,16.24,36.13h-47C374.81,266.81,381.13,260.13,381.13,241Zm48.78,36.13c20.59-11.38,41.71-32.88,41.71-63.22S450.5,162,429.91,150.66c32.69,0,61.59,19.87,61.59,63.23S462.6,277.11,429.91,277.11Z"/><path d="M513.52,241V186.79c0-19.15-6.31-25.83-16.25-36.13h47C534.3,161,528,167.64,528,186.79V241c0,19.15,6.31,25.83,16.25,36.13h-47C507.21,266.81,513.52,260.13,513.52,241Zm56-41.91v27.1c-6.33-7.77-19.15-13-27.1-13.55C550.38,212.08,563.38,206.84,569.53,199.07Zm19.87-21.31c-5.42-16.26-10.84-21.68-27.1-27.1h27.1Zm-27.1,99.35c16.26-5.42,21.68-10.84,27.1-27.1v27.1Z"/><path d="M652.18,277.11H598c16.26-5.42,21.67-10.84,27.09-27.1C630.5,266.27,635.92,271.69,652.18,277.11Zm72.43,0-76.05-72.26c-18.43-17.52-22.93-33.77-22.93-54.19l76,72.26C720.1,240.44,724.61,256.7,724.61,277.11Zm0-99.35c-5.42-16.26-10.83-21.68-27.09-27.1h54.19C735.45,156.08,730,161.5,724.61,177.76Z"/><path d="M187.77,177.76c-5.42-16.26-10.84-21.68-27.09-27.1h54.19C198.61,156.08,193.19,161.5,187.77,177.76Z"/><path d="M187.77,250.17c5.42,16.26,10.84,21.67,27.1,27.09H160.68C176.93,271.84,182.35,266.43,187.77,250.17Z"/><path d="M187.67,0C189,18.64,201.94,48.7,221.1,63.53c-19.16,14.82-32.09,44.88-33.43,63.52-1.33-18.64-14.26-49.12-33.42-63.52C173.41,49.12,186.34,18.64,187.67,0Z"/></g></g></svg>