<?xml version="1.0" encoding="UTF-8"?>
<svg id="_Шар_1" data-name="Шар_1" xmlns="http://www.w3.org/2000/svg" version="1.1" viewBox="0 0 841.89 595.28">
  <!-- Generator: Adobe Illustrator 29.2.1, SVG Export Plug-In . SVG Version: 2.1.0 Build 116)  -->
  <defs>
    <style>
      .st0 {
        fill: #124536;
      }
    </style>
  </defs>
  <path class="st0" d="M788.3,415.42h-1l-82.86-79.24c-11.06-12.95-17.1-30.29-15.5-47.31.79.02,10.01,8.1,11.49,9.46,19.91,18.32,41.33,38.23,60.43,57.28,17.49,17.45,29.37,33.39,27.44,59.81Z"/>
  <path class="st0" d="M252.01,138.42c3.24,23.44,13.96,44.93,30.94,61.34,1.44,1.39,3.56.95,3.02,2.92-19.83,15.01-29.84,39.52-34.46,63.29-3.5-24.09-14.72-47.59-33.38-63.42-.27-1.58,10.56-11.2,12.33-13.4,10.9-13.6,18.95-33.45,20.56-50.73h1Z"/>
  <path class="st0" d="M502.68,415.42h-9.99c11.42-7.71,21.64-15.2,29.78-26.59,26.04-36.47,7.88-80.6-29.77-98.97l8.53-1.03c63.23,2.16,74.54,98.51,19.79,121.46l-18.33,5.12Z"/>
  <path class="st0" d="M370.85,415.42h-9.99c10.76-8.04,20.79-14.42,28.79-25.58,26.76-37.33,9.18-80.28-28.79-99.98-.27-1.64,1.34-.92,2.47-.98,69.91-3.93,82.56,103.26,20.71,123.27l-13.2,3.27Z"/>
  <path class="st0" d="M560.6,415.42c3.18-6.05,9.11-9.81,12.17-16.26,1.67-3.52,3.29-9.39,3.69-13.26,1.5-14.33,1.85-61.28-1.37-74.12-2.46-9.82-8.42-15.35-14.49-22.91h47.94c-8.38,9.01-15.08,16.43-16.02,29.35-1.27,17.55-1.82,52.65.15,69.68,1.28,11.04,9.01,19.47,15.87,27.51h-47.94Z"/>
  <path class="st0" d="M295.95,415.42c4.97-7.63,11.47-11.84,14.28-21.12,3.6-11.88,2.75-59.69,1.74-74.08-.95-13.53-7-21.88-16.02-31.34h47.94c-7.11,7.83-14.58,16.49-15.87,27.51-1.94,16.61-1.35,50.54-.15,67.69,1.03,14.73,7.37,20.57,16.02,31.34h-47.94Z"/>
  <path class="st0" d="M159.14,415.42c4.96-6.2,10.61-11.32,13.47-18.94,5.35-14.25,4.9-65.98,2.25-81.94-1.79-10.81-8.73-17.92-15.72-25.66h47.94c-9.18,10.14-15.03,18.16-16.02,32.34-1.04,14.72-1.85,59.56,1.74,72.09.6,2.09,1.9,5.1,2.91,7.06,3.12,6.06,8.39,9.29,11.37,15.06h-47.94Z"/>
  <path class="st0" d="M64.26,288.87h46.93c.45,1.73-.72,2-1.49,3-6.3,8.2-10.65,10.19-13.19,21.71-2.79,12.66-2.82,64.47-.05,77.17,2.3,10.54,9.13,16.16,14.73,24.66h-46.94v-1.99c2.52-4.54,5.44-8.95,8.77-13.25,8.36-15.18,6.56-55.51,5.31-73.19-.9-12.66-2.29-23.68-12.65-32.39l-1.42-3.73v-1.99Z"/>
  <path class="st0" d="M427.78,415.42c4.09-5.31,10-10.44,12.86-16.57,6.03-12.94,5.19-58.8,4.16-74.65-.99-15.39-5.94-24.84-17.02-35.33h47.94c-5.74,8.29-12.33,13.26-14.7,23.69-2.83,12.43-2.73,65.63.02,78.14.95,4.32,2.56,8.33,4.87,12.08,2.88,4.66,7.66,7.73,9.81,12.63h-47.94Z"/>
  <path class="st0" d="M661.47,415.42c3.45-3.46,9.33-4.41,13.32-7.14,3.52-2.41,6.73-6.44,8.82-10.13l5.32-10.63c3.84,15.24,13.57,22.22,27.47,27.91h-54.93Z"/>
  <path class="st0" d="M278.98,415.42h-54.93c13.8-5.66,23.81-12.33,26.98-27.9,3.86,4.74,4.93,10.56,8.95,15.47,5.44,6.64,12,8.31,19,12.43Z"/>
  <path class="st0" d="M815.26,288.87v1c-8.94,2.5-16.93,6.51-21.77,14.65-.92,1.55-5.27,12.97-6.18,12.25-3.41-14.37-12.66-23.72-26.99-27.4l54.94-.5Z"/>
  <path class="st0" d="M653.48,415.42h-27.96c3.17-3.06,7.52-3.47,11.51-5.96,4.19-2.62,8.91-7.36,11.29-11.66,1.8-3.25,2.12-7.94,5.16-10.28v27.9Z"/>
  <path class="st0" d="M163.12,351.66l-10.96,3.49c-6.43,2.33-11.24,6.35-16.5,10.48-8.14-6.88-16.77-11.76-27.47-13.49,9.98-2.79,20.35-6.42,27.47-14.43,6.95,7.94,17.03,12.44,27.46,13.94Z"/>
  <path class="st0" d="M278.98,288.87l-11.65,5.81c-5.04,2.44-8.49,7.01-11.14,11.8-1.8,3.25-2.17,8.07-5.16,10.29-1.84-9.67-7.58-18.31-16.31-23.1l-10.67-4.8h54.93Z"/>
  <path class="st0" d="M633.5,364.6l-11.97-8.49-16-5.95c10.7-1.02,20.12-6.41,27.97-13.46v27.9Z"/>
  <path class="st0" d="M653.48,288.87v27.9l-6.19-12.26c-2.63-5.19-7.06-8.15-11.9-11.05l-9.87-4.6h27.96Z"/>
</svg>